<?xml version="1.0" encoding="utf-8"?><!-- Uploaded to: SVG Repo, www.svgrepo.com, Generator: SVG Repo Mixer Tools -->
<svg width="800px" height="800px" viewBox="0 0 24 24" id="Layer_1" data-name="Layer 1" xmlns="http://www.w3.org/2000/svg"><defs><style>.cls-1{fill:none;stroke:#020202;stroke-miterlimit:10;stroke-width:1.82px;}</style></defs><line class="cls-1" x1="1.09" y1="11.09" x2="22.91" y2="11.09"/><path class="cls-1" d="M17.73,22H6.27a1.82,1.82,0,0,1-1.8-1.52L2.91,11.09H21.09l-1.56,9.39A1.82,1.82,0,0,1,17.73,22Z"/><polygon class="cls-1" points="12 16.55 7.46 11.09 16.55 11.09 12 16.55"/><line class="cls-1" x1="15.64" y1="18.36" x2="20.18" y2="18.36"/><line class="cls-1" x1="16.55" y1="14.73" x2="20.18" y2="14.73"/><line class="cls-1" x1="8.36" y1="18.36" x2="3.82" y2="18.36"/><line class="cls-1" x1="7.45" y1="14.73" x2="3.82" y2="14.73"/><path class="cls-1" d="M12,2h0a6.36,6.36,0,0,1,6.36,6.36v2.73a0,0,0,0,1,0,0H5.64a0,0,0,0,1,0,0V8.36A6.36,6.36,0,0,1,12,2Z"/></svg>